<svg width="190" height="27" viewBox="0 0 190 27" fill="none" xmlns="http://www.w3.org/2000/svg">
<g filter="url(#filter0_d_126_2)">
<path d="M16.2639 0.840014H19.0479V18.48L6.78393 6.36001V17.64H3.99993V1.43051e-05L16.2639 12.12V0.840014ZM24.5254 17.64V15.144H32.9974V17.64H24.5254ZM24.5254 3.33601V0.840014H32.9974V3.33601H24.5254ZM24.5254 9.86401V7.41601H32.5174V9.86401H24.5254ZM22.7734 0.840014H25.5574V17.64H22.7734V0.840014ZM45.1963 0.840014H48.6523L43.5643 8.90401L49.0123 17.64H45.5563L41.9563 11.184L38.2363 17.64H34.8043L40.3723 8.90401L35.4043 0.840014H38.8363L41.9803 6.52801L45.1963 0.840014ZM50.109 3.45601V0.840014H61.821V3.45601H57.381V17.64H54.525V3.45601H50.109ZM65.6347 17.64V15.144H74.1067V17.64H65.6347ZM65.6347 3.33601V0.840014H74.1067V3.33601H65.6347ZM65.6347 9.86401V7.41601H73.6267V9.86401H65.6347ZM63.8827 0.840014H66.6667V17.64H63.8827V0.840014ZM89.8577 0.840014H92.6417V18.48L80.3777 6.36001V17.64H77.5937V1.43051e-05L89.8577 12.12V0.840014Z" fill="#3B82F6"/>
<path d="M104.666 12.24C105.034 12.88 105.426 13.448 105.842 13.944C106.274 14.424 106.746 14.8 107.258 15.072C107.77 15.328 108.346 15.456 108.986 15.456C109.754 15.456 110.378 15.248 110.858 14.832C111.338 14.416 111.578 13.88 111.578 13.224C111.578 12.6 111.426 12.104 111.122 11.736C110.818 11.352 110.394 11.032 109.85 10.776C109.322 10.504 108.706 10.24 108.002 9.98401C107.586 9.84001 107.122 9.64801 106.61 9.40801C106.098 9.15201 105.61 8.84001 105.146 8.47201C104.682 8.08801 104.298 7.62401 103.994 7.08001C103.69 6.52001 103.538 5.84801 103.538 5.06401C103.538 4.16801 103.77 3.38401 104.234 2.71201C104.698 2.02401 105.322 1.49601 106.106 1.12801C106.906 0.744014 107.81 0.552014 108.818 0.552014C109.81 0.552014 110.674 0.728014 111.41 1.08001C112.146 1.43201 112.762 1.88001 113.258 2.42401C113.77 2.96801 114.17 3.53601 114.458 4.12801L112.154 5.42401C111.946 5.00801 111.682 4.62401 111.362 4.27201C111.042 3.90401 110.666 3.61601 110.234 3.40801C109.818 3.18401 109.33 3.07201 108.77 3.07201C107.986 3.07201 107.41 3.25601 107.042 3.62401C106.674 3.97601 106.49 4.39201 106.49 4.87201C106.49 5.30401 106.618 5.69601 106.874 6.04801C107.146 6.38401 107.562 6.70401 108.122 7.00801C108.682 7.31201 109.41 7.62401 110.306 7.94401C110.802 8.12001 111.298 8.34401 111.794 8.61601C112.306 8.88801 112.77 9.23201 113.186 9.64801C113.602 10.048 113.93 10.52 114.17 11.064C114.426 11.608 114.554 12.248 114.554 12.984C114.554 13.768 114.402 14.472 114.098 15.096C113.794 15.72 113.378 16.248 112.85 16.68C112.322 17.096 111.722 17.416 111.05 17.64C110.394 17.88 109.706 18 108.986 18C107.994 18 107.074 17.808 106.226 17.424C105.394 17.024 104.666 16.496 104.042 15.84C103.418 15.184 102.922 14.472 102.554 13.704L104.666 12.24ZM115.781 3.45601V0.840014H127.493V3.45601H123.053V17.64H120.197V3.45601H115.781ZM129.435 0.840014H132.267V12C132.267 13.04 132.539 13.88 133.083 14.52C133.643 15.144 134.467 15.456 135.555 15.456C136.627 15.456 137.443 15.144 138.003 14.52C138.563 13.88 138.843 13.04 138.843 12V0.840014H141.675V12.12C141.675 13.048 141.523 13.88 141.219 14.616C140.931 15.336 140.515 15.952 139.971 16.464C139.427 16.976 138.779 17.368 138.027 17.64C137.275 17.912 136.451 18.048 135.555 18.048C134.659 18.048 133.835 17.912 133.083 17.64C132.331 17.368 131.675 16.976 131.115 16.464C130.571 15.952 130.155 15.336 129.867 14.616C129.579 13.88 129.435 13.048 129.435 12.12V0.840014ZM145.305 0.840014H148.185V17.64H145.305V0.840014ZM150.729 17.64H147.057V14.976H150.657C151.489 14.976 152.257 14.856 152.961 14.616C153.665 14.376 154.273 14.016 154.785 13.536C155.313 13.056 155.721 12.456 156.009 11.736C156.313 11.016 156.465 10.184 156.465 9.24001C156.465 8.29601 156.313 7.46401 156.009 6.74401C155.721 6.02401 155.313 5.42401 154.785 4.94401C154.273 4.46401 153.665 4.10401 152.961 3.86401C152.257 3.62401 151.489 3.50401 150.657 3.50401H147.057V0.840014H150.729C152.441 0.840014 153.945 1.19201 155.241 1.89601C156.537 2.58401 157.545 3.56001 158.265 4.82401C159.001 6.07201 159.369 7.54401 159.369 9.24001C159.369 10.936 159.001 12.416 158.265 13.68C157.545 14.928 156.537 15.904 155.241 16.608C153.945 17.296 152.441 17.64 150.729 17.64ZM162.133 0.840014H164.989V17.64H162.133V0.840014ZM170.782 9.24001C170.782 10.392 171.022 11.424 171.502 12.336C171.998 13.232 172.678 13.936 173.542 14.448C174.406 14.96 175.39 15.216 176.494 15.216C177.614 15.216 178.598 14.96 179.446 14.448C180.31 13.936 180.982 13.232 181.462 12.336C181.958 11.424 182.206 10.392 182.206 9.24001C182.206 8.08801 181.966 7.06401 181.486 6.16801C181.006 5.25601 180.334 4.54401 179.47 4.03201C178.622 3.52001 177.63 3.26401 176.494 3.26401C175.39 3.26401 174.406 3.52001 173.542 4.03201C172.678 4.54401 171.998 5.25601 171.502 6.16801C171.022 7.06401 170.782 8.08801 170.782 9.24001ZM167.782 9.24001C167.782 7.97601 167.998 6.81601 168.43 5.76001C168.862 4.70401 169.47 3.79201 170.254 3.02401C171.054 2.24001 171.982 1.63201 173.038 1.20001C174.11 0.768014 175.262 0.552014 176.494 0.552014C177.758 0.552014 178.918 0.768014 179.974 1.20001C181.03 1.63201 181.95 2.24001 182.734 3.02401C183.534 3.79201 184.15 4.70401 184.582 5.76001C185.014 6.81601 185.23 7.97601 185.23 9.24001C185.23 10.488 185.014 11.648 184.582 12.72C184.15 13.792 183.542 14.72 182.758 15.504C181.974 16.288 181.046 16.904 179.974 17.352C178.918 17.784 177.758 18 176.494 18C175.246 18 174.086 17.784 173.014 17.352C171.942 16.904 171.014 16.288 170.23 15.504C169.462 14.72 168.862 13.792 168.43 12.72C167.998 11.648 167.782 10.488 167.782 9.24001Z" fill="white"/>
</g>
<defs>
<filter id="filter0_d_126_2" x="0" y="0" width="189.23" height="26.48" filterUnits="userSpaceOnUse" color-interpolation-filters="sRGB">
<feFlood flood-opacity="0" result="BackgroundImageFix"/>
<feColorMatrix in="SourceAlpha" type="matrix" values="0 0 0 0 0 0 0 0 0 0 0 0 0 0 0 0 0 0 127 0" result="hardAlpha"/>
<feOffset dy="4"/>
<feGaussianBlur stdDeviation="2"/>
<feComposite in2="hardAlpha" operator="out"/>
<feColorMatrix type="matrix" values="0 0 0 0 0 0 0 0 0 0 0 0 0 0 0 0 0 0 0.25 0"/>
<feBlend mode="normal" in2="BackgroundImageFix" result="effect1_dropShadow_126_2"/>
<feBlend mode="normal" in="SourceGraphic" in2="effect1_dropShadow_126_2" result="shape"/>
</filter>
</defs>
</svg>
